<svg width="120" height="40" viewBox="0 0 120 40" fill="none" xmlns="http://www.w3.org/2000/svg">
  <rect width="40" height="40" rx="8" fill="#3B82F6"/>
  <path d="M10 20C10 14.4772 14.4772 10 20 10C25.5228 10 30 14.4772 30 20C30 25.5228 25.5228 30 20 30C14.4772 30 10 25.5228 10 20Z" fill="white"/>
  <path d="M17 15V25L25 20L17 15Z" fill="#3B82F6"/>
  <path d="M45 15H48.5L53.5 25H49.75L48.875 23H44.625L43.75 25H40L45 15ZM47.75 20.5L46.75 18L45.75 20.5H47.75Z" fill="#111827"/>
  <path d="M55 15H58.5V22.5C58.5 23.5 59 24 60 24H62.5C63.5 24 64 23.5 64 22.5V15H67.5V22.5C67.5 25.5 65.5 27 62.5 27H60C57 27 55 25.5 55 22.5V15Z" fill="#111827"/>
  <path d="M70 15H77.5C79.5 15 81 16.5 81 18.5C81 19.5 80.5 20.5 79.5 21C80.5 21.5 81 22.5 81 23.5C81 25.5 79.5 27 77.5 27H70V15ZM77 19.5C77.5 19.5 78 19 78 18.5C78 18 77.5 17.5 77 17.5H73.5V19.5H77ZM77 24.5C77.5 24.5 78 24 78 23.5C78 23 77.5 22.5 77 22.5H73.5V24.5H77Z" fill="#111827"/>
  <path d="M83 15H86.5V22.5C86.5 23.5 87 24 88 24H90.5C91.5 24 92 23.5 92 22.5V15H95.5V22.5C95.5 25.5 93.5 27 90.5 27H88C85 27 83 25.5 83 22.5V15Z" fill="#111827"/>
  <path d="M98 15H101.5V22.5H107V25H98V15Z" fill="#111827"/>
  <path d="M108 15H118V17.5H114.5V25H111.5V17.5H108V15Z" fill="#111827"/>
</svg>